<?xml version="1.0" encoding="utf-8"?>
<!-- Generator: Adobe Illustrator 24.3.0, SVG Export Plug-In . SVG Version: 6.00 Build 0)  -->
<svg version="1.1" id="Layer_1" focusable="false" xmlns="http://www.w3.org/2000/svg" xmlns:xlink="http://www.w3.org/1999/xlink"
	 x="0px" y="0px" viewBox="0 0 24 24" style="enable-background:new 0 0 24 24;" xml:space="preserve">
<style type="text/css">
	.st0{fill-rule:evenodd;clip-rule:evenodd;fill:#FFFFFF;}
</style>
<path class="st0" d="M18.6,9C18.6,9,18.6,9,18.6,9c-0.1-0.2-0.1-0.3-0.2-0.4c-0.5-0.9-1.2-1.7-2-2.3c-0.8-0.6-1.7-1-2.7-1.3
	c-1.7-0.4-3.5-0.2-5.2,0.7C6.8,6.7,5.7,8,5.1,9.8c-0.6,1.7-0.5,3.4,0.1,5.2c0.1,0.2,0.2,0.5,0.3,0.7c0.7,1.2,1.6,2.1,2.7,2.7
	c1.1,0.6,2.3,1,3.6,1c1.3,0.1,2.5-0.2,3.7-0.9c1.7-1,2.8-2.4,3.4-4.2C19.5,12.6,19.4,10.8,18.6,9z M15.2,8.9
	c-0.1,0.4-0.3,0.6-0.6,0.8c-0.3,0.2-0.7,0.2-1,0.1c-0.4-0.1-0.6-0.3-0.8-0.6c-0.2-0.3-0.2-0.6-0.1-1c0.1-0.3,0.3-0.6,0.6-0.8
	c0.3-0.2,0.6-0.2,1-0.1c0.3,0.1,0.6,0.3,0.8,0.6C15.2,8.3,15.2,8.6,15.2,8.9z"/>
</svg>
